<svg width="400" height="400" viewBox="0 5 27 30" fill="none" xmlns="http://www.w3.org/2000/svg">
<path d="M24.384 28.696C24.384 29.4 24 29.992 23.232 30.472C22.496 30.952 21.808 31.192 21.168 31.192C19.952 31.192 18.976 31.048 18.24 30.76C17.536 30.44 16.88 29.864 16.272 29.032C15.44 29.768 14.304 30.328 12.864 30.712C11.424 31.064 10.096 31.24 8.88 31.24C6.896 31.24 5.264 30.712 3.984 29.656C2.704 28.568 2.064 26.984 2.064 24.904C2.064 24.008 2.304 23.192 2.784 22.456C3.264 21.688 3.92 21.016 4.752 20.44C5.68 19.832 6.736 19.368 7.92 19.048C9.104 18.696 10.336 18.52 11.616 18.52C12.288 18.52 13.088 18.648 14.016 18.904C14.944 19.16 15.664 19.432 16.176 19.72V18.952C16.176 17.224 15.76 16.04 14.928 15.4C14.096 14.728 12.752 14.392 10.896 14.392C10.352 14.392 9.808 14.504 9.264 14.728C8.752 14.952 8.16 15.256 7.488 15.64C6.592 16.12 5.744 16.36 4.944 16.36C4.656 16.36 4.384 16.168 4.128 15.784C3.872 15.368 3.744 15 3.744 14.68C3.744 13.752 4.176 12.952 5.04 12.28C5.936 11.608 6.992 11.112 8.208 10.792C9.424 10.44 10.512 10.264 11.472 10.264C12.432 10.264 13.536 10.456 14.784 10.84C16.032 11.192 17.056 11.688 17.856 12.328C18.816 13.16 19.552 14.136 20.064 15.256C20.608 16.344 20.88 17.544 20.88 18.856C20.88 19.272 20.848 19.896 20.784 20.728C20.72 21.624 20.688 22.392 20.688 23.032C20.688 23.32 20.656 23.752 20.592 24.328C20.528 25.032 20.496 25.592 20.496 26.008C20.496 26.392 20.64 26.728 20.928 27.016C21.216 27.272 21.552 27.4 21.936 27.4L23.28 27.352C23.632 27.352 23.904 27.48 24.096 27.736C24.288 27.992 24.384 28.312 24.384 28.696ZM8.928 27.448C10.304 27.448 11.456 27.304 12.384 27.016C13.312 26.728 14.432 26.2 15.744 25.432C15.872 24.888 15.952 24.168 15.984 23.272C14.224 22.44 12.768 22.024 11.616 22.024C10.304 22.024 9.136 22.264 8.112 22.744C7.088 23.224 6.576 24.072 6.576 25.288C6.576 25.896 6.832 26.408 7.344 26.824C7.856 27.24 8.384 27.448 8.928 27.448Z" fill="#D83EFF"/>
</svg>
